0.16m3min_grf.mot
version=1
nRows=27
nColumns 19
inDegrees=yes
endheader
time	1_ground_force_vx	1_ground_force_vy	1_ground_force_vz	1_ground_force_px	1_ground_force_py	1_ground_force_pz	1_ground_torque_x	1_ground_torque_y	1_ground_torque_z	2_ground_force_vx	2_ground_force_vy	2_ground_force_vz	2_ground_force_px	2_ground_force_py	2_ground_force_pz	2_ground_torque_x	2_ground_torque_y	2_ground_torque_z
            0.005000	            0.228694	            0.361362	           -0.182447	           -0.278660	            0.006156	           -0.391669	            0.101431	           -0.018288	           -0.009368	           -0.096358	            0.736255	            0.002668	           -0.276634	            0.005288	           -0.642448	           -0.093841	           -0.028563	           -0.037762
            0.005500	            0.091279	            0.361139	           -0.136249	           -0.278660	            0.006156	           -0.391669	            0.061680	            0.000533	           -0.109043	           -0.092453	           -0.367965	           -0.188987	           -0.276634	            0.005288	           -0.642448	           -0.150478	            0.046923	           -0.056318
            0.006000	           -0.091719	            0.180248	            0.001001	           -0.278660	            0.006156	           -0.391669	            0.056054	           -0.018276	           -0.060528	           -0.044233	           -0.736428	           -0.096465	           -0.276634	            0.005288	           -0.642448	           -0.075201	            0.018567	            0.018950
            0.006500	           -0.045567	            0.359933	            0.139227	           -0.278660	            0.006156	           -0.391669	            0.087801	            0.018407	            0.016691	           -0.049652	            0.737596	           -0.325849	           -0.276634	            0.005288	           -0.642448	           -0.037418	           -0.038081	            0.037581
            0.007000	            0.091914	           -0.000375	            0.091484	           -0.278660	            0.006156	           -0.391669	            0.052457	            0.027705	            0.022696	            0.045438	            0.369135	           -0.186418	           -0.276634	            0.005288	           -0.642448	           -0.093859	           -0.019245	           -0.000028
            0.007500	            0.229817	           -0.181204	            0.227938	           -0.278660	            0.006156	           -0.391669	            0.065409	           -0.018280	           -0.009259	           -0.091226	           -0.735425	           -0.424941	           -0.276634	            0.005288	           -0.642448	           -0.187665	           -0.057260	           -0.037823
            0.008000	           -0.046313	           -0.539823	           -0.231485	           -0.278660	            0.006156	           -0.391669	            0.122665	           -0.036818	           -0.039994	           -0.093159	           -0.183482	           -0.282186	           -0.276634	            0.005288	           -0.642448	           -0.169229	            0.037402	           -0.056344
            0.008500	            0.045370	            0.721661	           -0.134590	           -0.278660	            0.006156	           -0.391669	            0.061595	           -0.064434	           -0.054894	           -0.279791	           -0.369144	           -0.048123	           -0.276634	            0.005288	           -0.642448	           -0.169075	           -0.009727	           -0.094213
            0.009000	           -0.182982	            0.359710	            0.185425	           -0.278660	            0.006156	           -0.391669	            0.010785	            0.045980	            0.029935	           -0.140694	            0.000664	           -0.328437	           -0.276634	            0.005288	           -0.642448	           -0.187836	           -0.009997	           -0.037654
            0.009500	           -0.046268	            1.081978	           -0.086960	           -0.278660	            0.006156	           -0.391669	            0.040665	           -0.018342	           -0.039769	           -0.188873	            0.368792	           -0.327103	           -0.276634	            0.005288	           -0.642448	           -0.112618	           -0.028698	           -0.018903
            0.010000	           -0.046217	            0.180847	           -0.136681	           -0.278660	            0.006156	           -0.391669	            0.024662	           -0.027993	            0.054252	           -0.002741	            0.737263	           -0.185084	           -0.276634	            0.005288	           -0.642448	           -0.206705	           -0.000208	           -0.150714
            0.010500	           -0.045858	           -0.540609	           -0.048061	           -0.278660	            0.006156	           -0.391669	            0.020978	           -0.009101	           -0.039623	           -0.373511	           -0.369315	           -0.095011	           -0.276634	            0.005288	           -0.642448	           -0.150206	           -0.019515	            0.018847
            0.011000	            0.228709	            0.901962	           -0.134272	           -0.278660	            0.006156	           -0.391669	            0.136350	           -0.045445	           -0.141177	           -0.233626	           -0.184659	           -0.094414	           -0.276634	            0.005288	           -0.642448	           -0.094046	            0.028153	           -0.037559
            0.011500	           -0.046152	           -0.179685	           -0.138227	           -0.278660	            0.006156	           -0.391669	            0.005985	           -0.046242	           -0.002161	            0.048762	           -0.551606	           -0.189704	           -0.276634	            0.005288	           -0.642448	           -0.131659	            0.037538	           -0.056360
            0.012000	           -0.092028	            0.000572	           -0.137340	           -0.278660	            0.006156	           -0.391669	            0.080714	           -0.018115	           -0.098178	           -0.185385	           -0.553289	            0.045037	           -0.276634	            0.005288	           -0.642448	           -0.075089	           -0.028226	           -0.113170
            0.012500	            0.091863	            0.900756	            0.141205	           -0.278660	            0.006156	           -0.391669	            0.049834	            0.000137	           -0.015044	           -0.188188	            0.184476	           -0.280832	           -0.276634	            0.005288	           -0.642448	           -0.131482	            0.008575	            0.113191
            0.013000	            0.229266	           -0.901087	           -0.050290	           -0.278660	            0.006156	           -0.391669	            0.190181	            0.028032	           -0.028142	           -0.042965	           -1.104222	           -0.238563	           -0.276634	            0.005288	           -0.642448	           -0.169187	            0.027882	           -0.037527
            0.013500	           -0.137448	            0.180042	            0.046970	           -0.278660	            0.006156	           -0.391669	            0.054327	           -0.018699	            0.031511	           -0.139282	           -0.368302	           -0.142039	           -0.276634	            0.005288	           -0.642448	           -0.150189	           -0.028833	           -0.018887
            0.014000	            0.091734	            0.360352	            0.047174	           -0.278660	            0.006156	           -0.391669	            0.016503	           -0.009035	           -0.033779	           -0.093823	            0.000666	           -0.281529	           -0.276634	            0.005288	           -0.642448	           -0.187912	            0.008976	           -0.056437
            0.014500	           -0.367052	           -0.179747	           -0.137430	           -0.278660	            0.006156	           -0.391669	           -0.012921	           -0.009258	           -0.053235	           -0.185529	           -0.552117	           -0.283460	           -0.276634	            0.005288	           -0.642448	           -0.112661	           -0.009994	            0.037715
            0.015000	           -0.321764	            0.361846	           -0.318649	           -0.278660	            0.006156	           -0.391669	            0.144731	            0.009274	           -0.051612	           -0.048179	            0.368127	            0.001334	           -0.276634	            0.005288	           -0.642448	           -0.112746	            0.009046	            0.000082
            0.015500	           -0.091995	           -0.179694	           -0.138113	           -0.278660	            0.006156	           -0.391669	            0.062190	            0.027856	           -0.041534	            0.094220	           -0.182638	           -0.329194	           -0.276634	            0.005288	           -0.642448	           -0.112551	           -0.038419	            0.056464
            0.016000	           -0.000422	           -0.179479	           -0.184197	           -0.278660	            0.006156	           -0.391669	            0.158018	            0.009429	           -0.037942	           -0.140694	            0.000664	           -0.328437	           -0.276634	            0.005288	           -0.642448	           -0.187964	            0.027747	           -0.018669
            0.016500	           -0.000051	            0.901132	            0.049721	           -0.278660	            0.006156	           -0.391669	            0.034916	            0.000170	           -0.037714	            0.141776	           -0.366952	           -0.236014	           -0.276634	            0.005288	           -0.642448	           -0.112839	            0.028153	           -0.056401
            0.017000	            0.045499	            1.262065	           -0.040559	           -0.278660	            0.006156	           -0.391669	            0.132365	            0.009611	           -0.073570	            0.097688	           -1.104552	           -0.003982	           -0.276634	            0.005288	           -0.642448	           -0.169066	           -0.018978	           -0.150797
            0.017500	           -0.091914	            0.000375	           -0.091484	           -0.278660	            0.006156	           -0.391669	            0.022311	           -0.064100	           -0.154625	           -0.045623	           -0.367629	           -0.235935	           -0.276634	            0.005288	           -0.642448	           -0.037544	           -0.018705	           -0.094303
            0.018000	            0.182932	            0.541422	           -0.135704	           -0.278660	            0.006156	           -0.391669	            0.061766	           -0.027478	           -0.030068	           -0.000767	            0.184985	           -0.233983	           -0.276634	            0.005288	           -0.642448	           -0.093857	           -0.028428	           -0.075462
